<?xml version="1.0" encoding="UTF-8" standalone="no"?>
<!DOCTYPE svg PUBLIC "-//W3C//DTD SVG 1.1//EN" "http://www.w3.org/Graphics/SVG/1.1/DTD/svg11.dtd">
<svg xmlns="http://www.w3.org/2000/svg" version="1.1" viewBox="0.00 0.00 250.00 100.00">
<path fill="#151515" d="
  M 12.32 36.65
  C 8.84 33.63 5.38 29.21 5.53 25.00
  C 5.70 20.28 8.56 16.70 11.71 12.18
  C 13.43 9.71 11.95 3.35 7.72 5.89
  A 1.58 1.48 52.6 0 0 7.48 8.25
  Q 8.05 8.87 9.05 8.63
  A 0.59 0.58 89.4 0 1 9.76 9.33
  C 8.13 16.35 -0.52 10.54 4.00 4.78
  Q 6.84 1.16 11.21 2.84
  C 14.95 4.28 15.96 7.74 14.47 11.48
  C 13.18 14.71 10.55 17.99 9.26 20.64
  A 0.42 0.42 0.0 0 0 9.60 21.24
  C 11.05 21.38 12.10 21.40 13.02 22.19
  Q 15.54 24.36 12.97 28.13
  A 0.84 0.84 0.0 0 1 11.46 27.47
  Q 11.47 27.39 11.76 26.82
  A 1.69 1.65 85.9 0 0 9.34 24.67
  Q 8.80 25.05 8.55 26.20
  C 7.79 29.68 11.81 33.08 14.89 34.37
  A 0.39 0.39 0.0 0 0 15.43 33.99
  C 15.17 27.31 24.68 27.04 23.17 32.87
  Q 22.95 33.75 22.20 33.78
  A 0.60 0.60 0.0 0 1 21.59 33.08
  L 21.61 32.96
  A 1.31 1.31 0.0 0 0 19.34 31.88
  C 17.55 33.90 18.58 36.19 19.83 38.25
  Q 22.56 42.76 21.75 47.64
  A 0.42 0.42 0.0 0 0 22.48 47.98
  Q 25.33 44.75 26.20 40.19
  Q 28.31 29.24 32.20 19.47
  C 33.33 16.63 34.90 14.06 36.92 11.71
  A 0.36 0.35 -64.4 0 0 36.72 11.13
  Q 29.90 9.86 27.76 9.47
  Q 22.20 8.46 18.79 11.94
  C 15.63 15.16 15.85 19.98 20.51 21.49
  Q 22.45 22.12 23.75 21.15
  A 1.94 1.69 48.4 0 0 23.73 18.41
  Q 22.84 17.53 21.68 17.03
  A 0.72 0.72 0.0 0 1 21.43 15.89
  Q 22.64 14.56 24.78 15.19
  C 28.09 16.15 30.18 19.28 28.36 22.58
  C 26.36 26.22 20.82 27.07 17.55 24.52
  C 13.64 21.47 13.60 16.20 15.54 11.97
  C 21.08 -0.12 32.31 2.58 43.30 4.75
  Q 45.28 5.14 48.29 4.96
  Q 53.29 4.67 59.80 4.81
  A 0.46 0.45 33.4 0 1 59.98 5.68
  Q 55.39 7.73 55.33 12.78
  Q 55.12 30.20 55.30 44.42
  Q 55.36 48.74 59.37 49.73
  A 0.34 0.34 0.0 0 1 59.50 50.32
  L 51.88 56.38
  A 0.83 0.82 48.3 0 1 50.79 56.31
  L 44.17 49.69
  A 0.40 0.40 0.0 0 1 44.17 49.11
  L 45.74 47.54
  A 3.05 3.04 -22.7 0 0 46.62 45.40
  L 46.62 38.01
  A 0.51 0.51 0.0 0 0 46.11 37.50
  L 31.87 37.50
  A 0.79 0.79 0.0 0 0 31.13 38.02
  L 28.32 45.68
  A 0.66 0.66 0.0 0 0 28.72 46.52
  L 36.40 49.26
  A 1.25 1.25 0.0 0 0 37.61 49.06
  Q 37.90 48.83 38.22 48.05
  A 0.43 0.43 0.0 0 1 38.92 47.91
  L 39.26 48.25
  A 0.99 0.99 0.0 0 1 39.34 49.56
  L 34.95 55.14
  A 2.48 2.46 -80.5 0 1 33.81 55.96
  Q 32.62 56.39 29.64 54.88
  Q 21.98 51.03 14.93 54.64
  A 0.71 0.71 0.0 0 1 13.96 54.28
  L 13.95 54.24
  A 0.99 0.99 0.0 0 1 14.35 53.02
  Q 20.49 49.17 18.87 44.71
  Q 17.19 40.09 13.31 39.59
  C 10.98 39.28 8.19 40.43 8.27 42.93
  Q 8.36 45.65 11.19 44.54
  A 1.17 1.17 0.0 0 1 12.72 46.03
  L 12.21 47.43
  A 2.83 2.82 12.0 0 1 9.37 49.27
  Q 6.68 49.10 5.81 48.24
  C 0.29 42.82 5.80 36.76 12.12 37.15
  A 0.28 0.28 0.0 0 0 12.32 36.65
  Z
  M 46.10 11.96
  Q 40.24 11.25 37.65 16.48
  Q 34.82 22.22 32.47 32.30
  A 0.47 0.47 0.0 0 0 32.93 32.87
  L 45.95 32.87
  A 0.77 0.76 90.0 0 0 46.71 32.10
  L 46.71 12.66
  A 0.71 0.70 -86.3 0 0 46.10 11.96
  Z"
/>
<path fill="#151515" d="
  M 237.66 46.07
  C 240.47 43.60 238.26 38.99 236.89 34.80
  A 0.79 0.78 -8.5 0 0 236.14 34.25
  L 227.67 34.25
  A 0.89 0.89 0.0 0 0 226.82 34.88
  C 226.10 37.28 223.37 44.42 226.05 45.97
  A 0.29 0.29 0.0 0 1 225.91 46.51
  L 218.62 46.51
  A 0.32 0.32 0.0 0 1 218.37 46.00
  Q 219.89 43.95 220.32 42.81
  Q 226.13 27.57 231.97 10.20
  A 1.05 1.04 9.3 0 1 232.96 9.49
  L 234.80 9.49
  A 1.10 1.10 0.0 0 1 235.85 10.26
  Q 242.58 31.98 245.91 42.82
  Q 246.09 43.43 248.19 46.00
  A 0.32 0.31 70.7 0 1 247.95 46.51
  L 237.82 46.51
  A 0.25 0.25 0.0 0 1 237.66 46.07
  Z
  M 231.93 31.75
  Q 235.66 31.77 235.69 31.76
  A 0.35 0.34 76.7 0 0 235.95 31.33
  L 232.10 18.37
  A 0.08 0.06 84.3 0 0 232.04 18.30
  Q 232.02 18.30 231.99 18.30
  Q 231.97 18.30 231.94 18.30
  A 0.08 0.06 -83.8 0 0 231.88 18.37
  L 227.91 31.29
  A 0.35 0.34 -76.1 0 0 228.17 31.73
  Q 228.20 31.73 231.93 31.75
  Z"
/>
<path fill="#151515" d="
  M 102.34 9.77
  C 112.86 10.82 116.51 20.72 115.59 29.89
  C 114.66 39.07 109.12 48.04 98.61 46.99
  C 88.09 45.93 84.45 36.03 85.37 26.86
  C 86.29 17.69 91.83 8.71 102.34 9.77
  Z
  M 92.26 28.38
  Q 92.46 44.09 100.72 43.99
  Q 108.98 43.89 108.79 28.18
  Q 108.59 12.47 100.33 12.57
  Q 92.07 12.67 92.26 28.38
  Z"
/>
<path fill="#151515" d="
  M 62.65 46.76
  A 0.20 0.19 -69.4 0 1 62.51 46.44
  Q 64.66 43.88 64.65 42.37
  C 64.55 33.97 64.71 25.09 64.66 14.49
  Q 64.65 13.45 62.67 10.58
  A 0.37 0.37 0.0 0 1 62.98 10.00
  L 72.58 10.00
  A 0.44 0.43 21.5 0 1 72.90 10.73
  C 70.51 13.25 70.83 15.89 70.83 19.65
  Q 70.84 31.14 70.87 42.95
  A 0.59 0.59 0.0 0 0 71.36 43.52
  Q 79.27 44.91 83.52 38.74
  A 0.26 0.26 0.0 0 1 83.99 38.90
  L 83.45 46.13
  A 0.68 0.68 0.0 0 1 82.77 46.76
  L 62.65 46.76
  Z"
/>
<path fill="#151515" d="
  M 139.65 10.12
  L 146.82 10.12
  A 0.35 0.35 0.0 0 1 147.05 10.74
  C 145.07 12.45 144.82 13.88 144.85 16.78
  Q 144.99 34.92 144.56 37.71
  C 143.31 45.80 137.38 47.70 129.85 46.85
  C 123.14 46.08 121.66 41.03 121.33 35.25
  Q 121.21 33.29 121.32 15.73
  Q 121.34 12.51 119.00 10.75
  A 0.41 0.41 0.0 0 1 119.25 10.01
  L 129.36 10.01
  A 0.37 0.37 0.0 0 1 129.62 10.65
  C 128.14 12.05 127.44 13.56 127.42 15.70
  Q 127.27 31.67 127.58 37.62
  C 127.70 39.78 128.49 42.56 130.94 43.37
  C 136.69 45.29 141.16 43.00 141.29 36.71
  Q 141.56 23.38 141.30 15.02
  Q 141.22 12.49 139.36 10.89
  A 0.44 0.44 0.0 0 1 139.65 10.12
  Z"
/>
<path fill="#151515" d="
  M 156.59 10.00
  Q 161.21 9.99 161.87 10.09
  A 0.15 0.15 0.0 0 1 161.97 10.34
  Q 159.81 12.86 159.71 14.98
  Q 159.69 15.61 159.69 28.24
  Q 159.70 40.88 159.73 41.51
  Q 159.82 43.63 161.98 46.14
  A 0.15 0.15 0.0 0 1 161.89 46.39
  Q 161.23 46.49 156.61 46.49
  Q 151.99 46.49 151.32 46.40
  A 0.15 0.15 0.0 0 1 151.23 46.15
  Q 153.39 43.63 153.48 41.51
  Q 153.51 40.88 153.50 28.25
  Q 153.50 15.61 153.47 14.98
  Q 153.37 12.86 151.21 10.34
  A 0.15 0.15 0.0 0 1 151.30 10.10
  Q 151.97 10.00 156.59 10.00
  Z"
/>
<path fill="#151515" d="
  M 191.44 20.23
  A 0.20 0.20 0.0 0 0 191.05 20.18
  L 181.47 46.36
  A 0.46 0.45 44.3 0 1 180.62 46.37
  L 171.71 23.66
  A 0.09 0.09 0.0 0 0 171.53 23.69
  Q 170.64 38.07 170.59 42.98
  Q 170.57 44.38 172.74 46.60
  A 0.03 0.02 -20.8 0 1 172.72 46.64
  L 164.83 46.64
  A 0.19 0.19 0.0 0 1 164.73 46.29
  C 167.53 44.49 167.44 42.13 167.66 38.58
  Q 168.21 29.97 168.81 18.24
  Q 169.06 13.26 166.90 10.82
  A 0.44 0.43 -20.5 0 1 167.23 10.10
  L 171.55 10.10
  A 1.45 1.45 0.0 0 1 172.90 11.02
  L 182.18 34.66
  A 0.32 0.31 -45.7 0 0 182.77 34.65
  L 191.57 10.60
  A 0.92 0.90 -79.8 0 1 192.42 10.00
  L 199.50 10.00
  A 0.33 0.32 -63.1 0 1 199.69 10.59
  Q 197.41 12.27 197.60 16.50
  Q 197.95 24.13 198.89 38.82
  C 199.08 41.87 198.88 43.97 201.45 46.09
  A 0.24 0.24 0.0 0 1 201.30 46.51
  L 190.82 46.51
  A 0.21 0.21 0.0 0 1 190.70 46.13
  C 192.63 44.76 192.98 43.05 192.81 40.71
  Q 192.53 36.74 191.44 20.23
  Z"
/>
<path fill="#151515" d="
  M 213.31 28.29
  Q 213.35 40.11 213.34 40.24
  Q 212.99 43.57 215.51 45.84
  A 0.41 0.41 0.0 0 1 215.24 46.55
  L 205.41 46.55
  A 0.40 0.40 0.0 0 1 205.16 45.83
  Q 206.60 44.67 206.90 42.64
  Q 207.05 41.65 207.00 28.31
  Q 206.95 14.97 206.79 13.99
  Q 206.48 11.96 205.03 10.81
  A 0.40 0.40 0.0 0 1 205.27 10.08
  L 215.10 10.01
  A 0.41 0.41 0.0 0 1 215.38 10.72
  Q 212.88 13.01 213.25 16.33
  Q 213.26 16.47 213.31 28.29
  Z"
/>
<path fill="#151515" d="
  M 93.43 50.27
  Q 100.73 47.76 108.39 50.22
  Q 115.19 52.39 120.76 53.87
  A 4.08 3.71 47.8 0 0 121.90 53.98
  Q 125.41 53.81 128.00 51.92
  A 0.52 0.52 0.0 0 1 128.77 52.57
  C 125.90 58.27 116.30 57.80 111.23 55.73
  C 104.74 53.07 100.00 50.14 93.58 50.91
  A 0.33 0.33 0.0 0 1 93.43 50.27
  Z"
/>
<path fill="#151515" d="
  M 131.31 60.86
  C 142.13 62.01 146.43 71.43 145.37 81.36
  C 144.31 91.29 138.12 99.60 127.31 98.44
  C 116.49 97.29 112.19 87.87 113.25 77.94
  C 114.30 68.01 120.49 59.71 131.31 60.86
  Z
  M 120.37 79.98
  Q 120.54 95.79 129.46 95.70
  Q 138.38 95.60 138.22 79.79
  Q 138.05 63.98 129.13 64.08
  Q 120.21 64.17 120.37 79.98
  Z"
/>
<path fill="#151515" d="
  M 176.62 70.85
  A 0.35 0.35 0.0 0 1 175.93 70.93
  Q 174.66 66.72 171.45 64.77
  C 166.83 61.96 160.82 65.52 159.12 70.40
  C 156.90 76.78 156.24 90.92 164.47 94.26
  C 170.25 96.59 173.25 94.21 177.25 90.65
  A 0.33 0.33 0.0 0 1 177.79 90.97
  L 176.45 96.78
  A 0.90 0.89 89.0 0 1 175.81 97.45
  Q 171.32 98.69 166.49 98.56
  Q 155.76 98.27 151.60 88.87
  C 149.21 83.46 149.63 75.32 152.53 70.06
  Q 157.33 61.37 167.62 60.96
  Q 169.85 60.87 176.70 62.40
  A 0.65 0.64 8.3 0 1 177.21 63.07
  L 176.62 70.85
  Z"
/>
<path fill="#151515" d="
  M 78.34 97.21
  Q 80.46 95.66 80.42 91.01
  Q 80.39 86.05 80.40 68.28
  C 80.40 65.52 79.92 63.65 78.10 61.82
  A 0.32 0.32 0.0 0 1 78.33 61.27
  C 84.99 61.28 93.15 60.36 98.82 62.67
  C 107.94 66.40 110.47 76.43 107.80 85.46
  C 105.44 93.43 97.70 98.03 89.56 98.02
  Q 78.62 98.02 78.42 97.92
  A 0.41 0.41 0.0 0 1 78.34 97.21
  Z
  M 86.93 65.05
  L 86.77 94.39
  A 1.08 1.08 0.0 0 0 87.85 95.48
  L 89.38 95.49
  A 12.79 11.89 -89.7 0 0 101.33 82.76
  L 101.37 76.84
  A 12.79 11.89 -89.7 0 0 89.54 63.99
  L 88.01 63.98
  A 1.08 1.08 0.0 0 0 86.93 65.05
  Z"
/>
<path fill="#151515" d="
  M 202.42 69.10
  A 0.28 0.28 0.0 0 1 201.87 69.17
  C 200.21 64.12 195.59 63.77 191.02 64.17
  A 0.74 0.73 -2.6 0 0 190.35 64.90
  L 190.35 77.56
  A 0.61 0.60 3.2 0 0 190.89 78.16
  C 194.44 78.55 198.26 78.28 199.67 74.71
  A 0.23 0.23 0.0 0 1 200.12 74.80
  L 200.12 83.97
  A 0.28 0.28 0.0 0 1 199.60 84.12
  C 197.73 80.95 194.76 80.73 190.98 80.49
  A 0.58 0.58 0.0 0 0 190.35 81.07
  L 190.35 94.34
  A 0.80 0.79 2.8 0 0 191.07 95.13
  C 196.50 95.64 200.94 95.14 204.14 90.21
  A 0.33 0.33 0.0 0 1 204.74 90.41
  L 204.21 97.45
  A 0.58 0.58 0.0 0 1 203.63 97.99
  L 181.90 97.99
  A 0.27 0.27 0.0 0 1 181.73 97.51
  Q 183.91 95.82 183.91 92.18
  Q 183.90 80.79 183.90 71.32
  C 183.91 67.38 184.15 64.38 181.41 61.82
  A 0.34 0.34 0.0 0 1 181.64 61.24
  L 202.25 61.24
  A 0.70 0.69 2.3 0 1 202.95 61.99
  L 202.42 69.10
  Z"
/>
</svg>
